#!OML:ASF E:/inclinewalkrobotboard/Project1/Captureday1/Session1/subject1.ASF
:FULLY-SPECIFIED
:DEGREES
188
root 0 0 0 1.8485578943922212 -3.925393210625898 2.1634060266147426
lowerback 11.996177422697192 1.1775906522841946 -0.07352294956414818
upperback -4.454546244135362 1.484097037528199 -0.8588208398760534
thorax -11.570009650987993 0.6872326901288159 -1.1543173955987291
lowerneck -6.249518884989596 1.7473288897708203 4.830956358749658
upperneck 18.187868239141515 3.2782050114097983 -8.48523590284983
head 6.703267790634025 1.2190309049578336 -3.2925918732737047
rclavicle -2.180191454239391E-15 -1.1054303151768206E-15
rhumerus 23.285437394466776 17.872792052171356 -48.51356729775165
rradius 74.92108199419141
rwrist 25.798597727211362
rhand -34.82126915875204 -58.10892243323391
rfingers 7.12502
rthumb -7.964454664430782 -88.02066672957926
lclavicle -1.1343071951199946E-15 -8.476289485480138E-16
lhumerus 22.421695851754897 -14.510332981298436 45.75175637275228
lradius 71.3211471701664
lwrist -21.409403957480507
lhand -45.273045688219995 -69.05968459997274
lfingers 7.125020000000012
lthumb -18.047706713969735 -39.81215896067741
rfemur -24.434997145418308 -0.7974862138465628 18.617849598183792
rtibia 45.02941139432927
rfoot -33.01636555973355 -17.861956525626994
rtoes -23.020597373481003
lfemur -26.822137136044393 1.857017340339878 -15.327255768648245
ltibia 45.17511996956227
lfoot -32.14531076716689 3.3311141232764623
ltoes -21.410295052212703
189
root 0 0 0 1.8488618036103355 -3.9225280425228473 2.1689024671563746
lowerback 11.995098887545138 1.1759963172733705 -0.07956614986548416
upperback -4.454776238104895 1.4811743213521473 -0.85936192830577
thorax -11.569386888047132 0.6859581950002369 -1.151076534534616
lowerneck -6.248558081545337 1.747607815208957 4.83014531992863
upperneck 18.186933022854795 3.278699523709074 -8.48445264635077
head 6.702823692901479 1.2193121175821502 -3.2921799429322256
rclavicle -2.167149966271783E-15 -1.1108226012950555E-15
rhumerus 23.29371522769724 17.885742763314163 -48.52277723167332
rradius 74.92865910478105
rwrist 25.7884841334038
rhand -34.82123615058563 -58.107706299088385
rfingers 7.12502
rthumb -7.964066548817069 -88.01818383631371
lclavicle -1.1275930139743149E-15 -8.515729359461503E-16
lhumerus 22.42381780498083 -14.519198047333955 45.75685641993938
lradius 71.32503876317926
lwrist -21.4018028124963
lhand -45.27283230279871 -69.0498422511437
lfingers 7.125020000000012
lthumb -18.047060065260485 -39.80137803761406
rfemur -24.468283122753316 -0.8010471311898986 18.601782185520314
rtibia 45.03198174486762
rfoot -33.00954066717853 -17.870680957611626
rtoes -23.034463579852908
lfemur -26.765044907594145 1.8386809277003144 -15.388178353555414
ltibia 44.958866879228616
lfoot -32.29528406473716 3.4216916699154494
ltoes -21.390293897859458
190
root 0 0 0 1.849827999443665 -3.9179196355871957 2.1743936506222505
lowerback 11.99316654818612 1.1737304526592167 -0.08646322437845444
upperback -4.455062600999952 1.4772649209097088 -0.8595353702215623
thorax -11.568366522451669 0.6842390313060713 -1.1467677291183658
lowerneck -6.247772519178724 1.7482677837386953 4.829668811415158
upperneck 18.184836836938103 3.2796601952074536 -8.484004458825055
head 6.701990769429363 1.219802440526664 -3.2918951558746805
rclavicle -2.1587701383532617E-15 -1.1085009667723342E-15
rhumerus 23.2956979442052 17.889759574890014 -48.52686147794036
rradius 74.93023173247784
rwrist 25.78424079032926
rhand -34.82069448100177 -58.10514751755549
rfingers 7.12502
rthumb -7.963546866925487 -88.01522583405608
lclavicle -1.1181608144528838E-15 -8.482190158958553E-16
lhumerus 22.426580399228634 -14.526337561786224 45.75976813682641
lradius 71.3287414366664
lwrist -21.397049298162322
lhand -45.27248319768625 -69.04167286999665
lfingers 7.125020000000012
lthumb -18.04669409489893 -39.793361830881196
rfemur -24.502598910380588 -0.7998869461172688 18.594005713115813
rtibia 45.003321934998404
rfoot -33.01981464324098 -17.87851823443806
rtoes -23.045552986925227
lfemur -26.685975236534354 1.8161778921802854 -15.444991886767053
ltibia 44.73975811627126
lfoot -32.420144315384945 3.498671911681808
ltoes -21.386045613878295
191
root 0 0 0 1.8504039090577908 -3.911068105514307 2.180002166851228
lowerback 11.990549355568403 1.1706109933862128 -0.09414599227414433
upperback -4.455625590829994 1.4721422966172741 -0.8593228658435589
thorax -11.567210905634834 0.6819472611909929 -1.141475654280404
lowerneck -6.246096011860464 1.7491962359262778 4.829497699135032
upperneck 18.182880382025935 3.2810772992448847 -8.484091765789918
head 6.701049790722822 1.2204711709675689 -3.291790579900436
rclavicle -2.1504437766242686E-15 -1.1050774165499593E-15
rhumerus 23.292394041474886 17.886838955553223 -48.526975195111575
rradius 74.92739134784071
rwrist 25.78447108900649
rhand -34.81993588805456 -58.10234288022085
rfingers 7.12502
rthumb -7.962777029566716 -88.01209862429562
lclavicle -1.1100411279401382E-15 -8.434645679716776E-16
lhumerus 22.428428659935108 -14.532185045804084 45.762410125731556
lradius 71.33158309900836
lwrist -21.392938096532063
lhand -45.27207374204349 -69.03448946233813
lfingers 7.125020000000012
lthumb -18.0462584031487 -39.78603333518801
rfemur -24.531532852348608 -0.7986039030618697 18.586462889401158
rtibia 44.97691418434723
rfoot -33.023353268410176 -17.881996759700574
rtoes -23.0595598342819
lfemur -26.590174864310086 1.7921110964363982 -15.497004388097851
ltibia 44.539975867234475
lfoot -32.50838490463993 3.5511781041955803
ltoes -21.39241320824335
